<?xml version="1.0" encoding="UTF-8"?> <svg xmlns="http://www.w3.org/2000/svg" xmlns:xlink="http://www.w3.org/1999/xlink" width="400" zoomAndPan="magnify" viewBox="0 0 300 58.499998" height="78" preserveAspectRatio="xMidYMid meet" version="1.0"><defs><clipPath id="ad6aed7498"><path d="M 1.269531 0 L 298.726562 0 L 298.726562 58.003906 L 1.269531 58.003906 Z M 1.269531 0 " clip-rule="nonzero"></path></clipPath><clipPath id="b9c924e4f9"><path d="M 1.269531 0 L 298.726562 0 L 298.726562 57.261719 L 1.269531 57.261719 Z M 1.269531 0 " clip-rule="nonzero"></path></clipPath><clipPath id="353b41445f"><path d="M 3.371094 1.9375 L 69.441406 1.9375 L 69.441406 16.589844 L 3.371094 16.589844 Z M 3.371094 1.9375 " clip-rule="nonzero"></path></clipPath><clipPath id="d633918f9e"><path d="M 3.371094 21.703125 L 69.441406 21.703125 L 69.441406 36.355469 L 3.371094 36.355469 Z M 3.371094 21.703125 " clip-rule="nonzero"></path></clipPath><clipPath id="95b7bb30ea"><path d="M 3.371094 41.515625 L 69.441406 41.515625 L 69.441406 56.164062 L 3.371094 56.164062 Z M 3.371094 41.515625 " clip-rule="nonzero"></path></clipPath><clipPath id="d800bdeda5"><path d="M 6 0 L 67 0 L 67 57.261719 L 6 57.261719 Z M 6 0 " clip-rule="nonzero"></path></clipPath><clipPath id="a28df2ac82"><path d="M 14.941406 19.734375 L 57.867188 19.734375 L 57.867188 42.25 L 14.941406 42.25 Z M 14.941406 19.734375 " clip-rule="nonzero"></path></clipPath><clipPath id="138e8c44bd"><path d="M 33.96875 42.25 L 38.84375 42.25 L 38.84375 57.261719 L 33.96875 57.261719 Z M 33.96875 42.25 " clip-rule="nonzero"></path></clipPath><clipPath id="5399803427"><path d="M 26.125 18.519531 L 46.722656 18.519531 L 46.722656 38.195312 L 26.125 38.195312 Z M 26.125 18.519531 " clip-rule="nonzero"></path></clipPath><clipPath id="bb6b9827a8"><path d="M 36.402344 18.519531 L 38.832031 26.035156 L 46.6875 26.035156 L 40.332031 30.679688 L 42.761719 38.195312 L 36.402344 33.546875 L 30.050781 38.195312 L 32.476562 30.679688 L 26.125 26.035156 L 33.980469 26.035156 Z M 36.402344 18.519531 " clip-rule="nonzero"></path></clipPath></defs><g clip-path="url(#ad6aed7498)"><path fill="#ffffff" d="M 1.269531 0 L 298.730469 0 L 298.730469 58.003906 L 1.269531 58.003906 Z M 1.269531 0 " fill-opacity="1" fill-rule="nonzero"></path><path fill="#ffffff" d="M 1.269531 0 L 298.730469 0 L 298.730469 58.003906 L 1.269531 58.003906 Z M 1.269531 0 " fill-opacity="1" fill-rule="nonzero"></path></g><g clip-path="url(#b9c924e4f9)"><rect x="-30" width="360" fill="#ffffff" y="-5.85" height="70.199998" fill-opacity="1"></rect><rect x="-30" width="360" fill="#ffffff" y="-5.85" height="70.199998" fill-opacity="1"></rect></g><g clip-path="url(#353b41445f)"><path fill="#b82026" d="M 3.371094 1.9375 L 69.464844 1.9375 L 69.464844 16.589844 L 3.371094 16.589844 Z M 3.371094 1.9375 " fill-opacity="1" fill-rule="nonzero"></path></g><g clip-path="url(#d633918f9e)"><path fill="#b82026" d="M 3.371094 21.703125 L 69.464844 21.703125 L 69.464844 36.355469 L 3.371094 36.355469 Z M 3.371094 21.703125 " fill-opacity="1" fill-rule="nonzero"></path></g><g clip-path="url(#95b7bb30ea)"><path fill="#b82026" d="M 3.371094 41.515625 L 69.464844 41.515625 L 69.464844 56.164062 L 3.371094 56.164062 Z M 3.371094 41.515625 " fill-opacity="1" fill-rule="nonzero"></path></g><g clip-path="url(#d800bdeda5)"><path fill="#ffffff" d="M 42.628906 -1.820312 L 66.433594 57.355469 L 51.980469 57.355469 L 47.625 45.515625 L 25.179688 45.515625 L 20.820312 57.355469 L 6.386719 57.355469 L 30.191406 -1.820312 Z M 43.054688 33.679688 L 36.484375 16.464844 L 36.335938 16.464844 L 29.765625 33.679688 Z M 43.054688 33.679688 " fill-opacity="1" fill-rule="nonzero"></path></g><g clip-path="url(#a28df2ac82)"><path fill="#ffffff" d="M 14.941406 19.734375 L 57.890625 19.734375 L 57.890625 42.25 L 14.941406 42.25 Z M 14.941406 19.734375 " fill-opacity="1" fill-rule="nonzero"></path></g><g clip-path="url(#138e8c44bd)"><path fill="#ffffff" d="M 33.96875 42.25 L 38.84375 42.25 L 38.84375 64.761719 L 33.96875 64.761719 Z M 33.96875 42.25 " fill-opacity="1" fill-rule="nonzero"></path></g><g clip-path="url(#5399803427)"><g clip-path="url(#bb6b9827a8)"><path fill="#b82026" d="M 26.125 18.519531 L 46.722656 18.519531 L 46.722656 38.195312 L 26.125 38.195312 Z M 26.125 18.519531 " fill-opacity="1" fill-rule="nonzero"></path></g></g><path fill="#000000" d="M 78.929688 37.558594 L 85.582031 37.558594 C 87.359375 37.558594 88.8125 38.042969 89.941406 39.007812 C 91.0625 39.960938 91.628906 41.324219 91.628906 43.101562 C 91.628906 44.472656 91.285156 45.625 90.59375 46.554688 C 89.914062 47.472656 88.992188 48.125 87.828125 48.492188 L 94.214844 56.203125 L 88.84375 56.203125 L 83.175781 48.839844 L 83.175781 56.203125 L 78.929688 56.203125 Z M 83.175781 45.828125 L 83.664062 45.828125 C 84.058594 45.828125 84.386719 45.824219 84.648438 45.8125 C 84.917969 45.804688 85.226562 45.753906 85.566406 45.664062 C 85.914062 45.566406 86.191406 45.433594 86.402344 45.269531 C 86.617188 45.105469 86.796875 44.867188 86.941406 44.546875 C 87.09375 44.230469 87.171875 43.847656 87.171875 43.394531 C 87.171875 42.949219 87.09375 42.566406 86.941406 42.246094 C 86.796875 41.929688 86.617188 41.6875 86.402344 41.523438 C 86.191406 41.355469 85.914062 41.234375 85.566406 41.144531 C 85.226562 41.042969 84.917969 40.992188 84.648438 40.980469 C 84.386719 40.972656 84.058594 40.960938 83.664062 40.960938 L 83.175781 40.960938 Z M 83.175781 45.828125 " fill-opacity="1" fill-rule="nonzero"></path><path fill="#000000" d="M 94.230469 46.882812 C 94.230469 44.183594 95.140625 41.90625 96.964844 40.042969 C 98.800781 38.167969 101.003906 37.230469 103.585938 37.230469 C 106.183594 37.230469 108.390625 38.164062 110.203125 40.027344 C 112.015625 41.878906 112.925781 44.164062 112.925781 46.882812 C 112.925781 49.601562 112.027344 51.890625 110.238281 53.753906 C 108.457031 55.621094 106.238281 56.550781 103.585938 56.550781 C 100.867188 56.550781 98.625 55.628906 96.867188 53.789062 C 95.105469 51.9375 94.230469 49.636719 94.230469 46.882812 Z M 98.800781 46.882812 C 98.800781 47.859375 98.949219 48.753906 99.242188 49.5625 C 99.539062 50.363281 100.0625 51.042969 100.816406 51.601562 C 101.570312 52.160156 102.492188 52.4375 103.585938 52.4375 C 105.160156 52.4375 106.34375 51.898438 107.140625 50.8125 C 107.949219 49.726562 108.351562 48.417969 108.351562 46.882812 C 108.351562 45.359375 107.945312 44.054688 107.125 42.96875 C 106.3125 41.875 105.132812 41.324219 103.585938 41.324219 C 102.054688 41.324219 100.875 41.875 100.046875 42.96875 C 99.214844 44.054688 98.800781 45.359375 98.800781 46.882812 Z M 98.800781 46.882812 " fill-opacity="1" fill-rule="nonzero"></path><path fill="#000000" d="M 113.972656 46.882812 C 113.972656 44.183594 114.882812 41.90625 116.710938 40.042969 C 118.546875 38.167969 120.75 37.230469 123.328125 37.230469 C 125.925781 37.230469 128.132812 38.164062 129.949219 40.027344 C 131.757812 41.878906 132.667969 44.164062 132.667969 46.882812 C 132.667969 49.601562 131.769531 51.890625 129.980469 53.753906 C 128.199219 55.621094 125.984375 56.550781 123.328125 56.550781 C 120.609375 56.550781 118.371094 55.628906 116.613281 53.789062 C 114.851562 51.9375 113.972656 49.636719 113.972656 46.882812 Z M 118.546875 46.882812 C 118.546875 47.859375 118.691406 48.753906 118.988281 49.5625 C 119.28125 50.363281 119.808594 51.042969 120.5625 51.601562 C 121.3125 52.160156 122.234375 52.4375 123.328125 52.4375 C 124.902344 52.4375 126.085938 51.898438 126.882812 50.8125 C 127.691406 49.726562 128.097656 48.417969 128.097656 46.882812 C 128.097656 45.359375 127.6875 44.054688 126.867188 42.96875 C 126.058594 41.875 124.878906 41.324219 123.328125 41.324219 C 121.796875 41.324219 120.617188 41.875 119.789062 42.96875 C 118.960938 44.054688 118.546875 45.359375 118.546875 46.882812 Z M 118.546875 46.882812 " fill-opacity="1" fill-rule="nonzero"></path><path fill="#000000" d="M 145.285156 37.558594 L 145.285156 41.292969 L 138.78125 41.292969 L 138.78125 44.992188 L 144.792969 44.992188 L 144.792969 48.722656 L 138.78125 48.722656 L 138.78125 56.203125 L 134.539062 56.203125 L 134.539062 37.558594 Z M 145.285156 37.558594 " fill-opacity="1" fill-rule="nonzero"></path><path fill="#000000" d="M 147.300781 37.558594 L 151.546875 37.558594 L 151.546875 56.203125 L 147.300781 56.203125 Z M 147.300781 37.558594 " fill-opacity="1" fill-rule="nonzero"></path><path fill="#000000" d="M 158.480469 44.644531 L 158.480469 56.203125 L 154.238281 56.203125 L 154.238281 37.558594 L 158.480469 37.558594 L 165.851562 49.132812 L 165.902344 49.132812 L 165.902344 37.558594 L 170.128906 37.558594 L 170.128906 56.203125 L 165.902344 56.203125 L 158.511719 44.644531 Z M 158.480469 44.644531 " fill-opacity="1" fill-rule="nonzero"></path><path fill="#000000" d="M 189.625 45.765625 L 189.625 49.808594 C 189.140625 52.023438 188.09375 53.699219 186.480469 54.839844 C 184.863281 55.980469 183.054688 56.550781 181.058594 56.550781 C 178.542969 56.550781 176.40625 55.609375 174.652344 53.722656 C 172.890625 51.839844 172.011719 49.5625 172.011719 46.898438 C 172.011719 44.195312 172.875 41.90625 174.601562 40.042969 C 176.324219 38.167969 178.476562 37.230469 181.058594 37.230469 C 184.070312 37.230469 186.457031 38.296875 188.214844 40.421875 L 185.449219 43.460938 C 184.453125 41.863281 183.070312 41.0625 181.300781 41.0625 C 180 41.0625 178.886719 41.632812 177.960938 42.769531 C 177.042969 43.914062 176.585938 45.285156 176.585938 46.898438 C 176.585938 48.476562 177.042969 49.832031 177.960938 50.960938 C 178.886719 52.078125 180 52.636719 181.300781 52.636719 C 182.382812 52.636719 183.320312 52.308594 184.121094 51.648438 C 184.925781 50.992188 185.332031 50.121094 185.332031 49.035156 L 181.058594 49.035156 L 181.058594 45.765625 Z M 189.625 45.765625 " fill-opacity="1" fill-rule="nonzero"></path><path fill="#b82026" d="M 84.902344 11.164062 L 84.902344 26.257812 L 79.378906 26.257812 L 79.378906 1.941406 L 84.902344 1.941406 L 94.535156 17.035156 L 94.582031 17.035156 L 94.582031 1.941406 L 100.105469 1.941406 L 100.105469 26.257812 L 94.582031 26.257812 L 84.949219 11.164062 Z M 84.902344 11.164062 " fill-opacity="1" fill-rule="nonzero"></path><path fill="#b82026" d="M 102.535156 14.078125 C 102.535156 10.570312 103.730469 7.597656 106.125 5.164062 C 108.515625 2.722656 111.390625 1.5 114.757812 1.5 C 118.140625 1.5 121.019531 2.714844 123.390625 5.148438 C 125.757812 7.574219 126.945312 10.550781 126.945312 14.078125 C 126.945312 17.640625 125.777344 20.636719 123.441406 23.070312 C 121.113281 25.496094 118.21875 26.703125 114.757812 26.703125 C 111.21875 26.703125 108.292969 25.503906 105.992188 23.101562 C 103.6875 20.695312 102.535156 17.683594 102.535156 14.078125 Z M 108.5 14.078125 C 108.5 15.359375 108.695312 16.527344 109.089844 17.578125 C 109.480469 18.628906 110.164062 19.527344 111.136719 20.257812 C 112.121094 20.980469 113.324219 21.34375 114.757812 21.34375 C 116.808594 21.34375 118.363281 20.636719 119.410156 19.222656 C 120.460938 17.800781 120.984375 16.082031 120.984375 14.078125 C 120.984375 12.09375 120.445312 10.390625 119.378906 8.960938 C 118.316406 7.539062 116.777344 6.824219 114.757812 6.824219 C 112.757812 6.824219 111.210938 7.539062 110.121094 8.960938 C 109.039062 10.390625 108.5 12.09375 108.5 14.078125 Z M 108.5 14.078125 " fill-opacity="1" fill-rule="nonzero"></path><path fill="#b82026" d="M 129.382812 1.941406 L 138.050781 1.941406 C 140.378906 1.941406 142.269531 2.566406 143.734375 3.816406 C 145.210938 5.058594 145.949219 6.835938 145.949219 9.160156 C 145.949219 10.949219 145.496094 12.449219 144.605469 13.664062 C 143.71875 14.875 142.511719 15.71875 140.984375 16.214844 L 149.324219 26.257812 L 142.292969 26.257812 L 134.90625 16.640625 L 134.90625 26.257812 L 129.382812 26.257812 Z M 134.90625 12.726562 L 135.542969 12.726562 C 136.054688 12.726562 136.488281 12.71875 136.839844 12.695312 C 137.1875 12.675781 137.585938 12.609375 138.035156 12.496094 C 138.492188 12.378906 138.859375 12.210938 139.132812 11.988281 C 139.402344 11.769531 139.640625 11.457031 139.835938 11.050781 C 140.035156 10.636719 140.132812 10.136719 140.132812 9.554688 C 140.132812 8.960938 140.035156 8.460938 139.835938 8.042969 C 139.640625 7.625 139.402344 7.316406 139.132812 7.105469 C 138.859375 6.886719 138.492188 6.71875 138.035156 6.59375 C 137.585938 6.476562 137.1875 6.410156 136.839844 6.398438 C 136.488281 6.378906 136.054688 6.363281 135.542969 6.363281 L 134.90625 6.363281 Z M 134.90625 12.726562 " fill-opacity="1" fill-rule="nonzero"></path><path fill="#b82026" d="M 148.871094 6.808594 L 148.871094 1.941406 L 165.910156 1.941406 L 165.910156 6.808594 L 160.15625 6.808594 L 160.15625 26.257812 L 154.636719 26.257812 L 154.636719 6.808594 Z M 148.871094 6.808594 " fill-opacity="1" fill-rule="nonzero"></path><path fill="#b82026" d="M 173.429688 16.507812 L 173.429688 26.257812 L 167.910156 26.257812 L 167.910156 1.941406 L 173.429688 1.941406 L 173.429688 11.644531 L 181.246094 11.644531 L 181.246094 1.941406 L 186.765625 1.941406 L 186.765625 26.257812 L 181.246094 26.257812 L 181.246094 16.507812 Z M 173.429688 16.507812 " fill-opacity="1" fill-rule="nonzero"></path><path fill="#b82026" d="M 196.761719 6.808594 L 196.761719 1.941406 L 213.800781 1.941406 L 213.800781 6.808594 L 208.046875 6.808594 L 208.046875 26.257812 L 202.527344 26.257812 L 202.527344 6.808594 Z M 196.761719 6.808594 " fill-opacity="1" fill-rule="nonzero"></path><path fill="#b82026" d="M 229.660156 1.941406 L 229.660156 6.808594 L 221.324219 6.808594 L 221.324219 11.644531 L 229.300781 11.644531 L 229.300781 16.507812 L 221.324219 16.507812 L 221.324219 21.394531 L 229.660156 21.394531 L 229.660156 26.257812 L 215.800781 26.257812 L 215.800781 1.941406 Z M 229.660156 1.941406 " fill-opacity="1" fill-rule="nonzero"></path><path fill="#b82026" d="M 255.507812 26.257812 L 248.363281 26.257812 L 242.628906 17.972656 L 236.910156 26.257812 L 230.0625 26.257812 L 239.222656 13.171875 L 231.585938 1.941406 L 238.171875 1.941406 L 242.628906 8.566406 L 247.101562 1.941406 L 253.984375 1.941406 L 246.039062 13.171875 Z M 255.507812 26.257812 " fill-opacity="1" fill-rule="nonzero"></path><path fill="#b82026" d="M 268.566406 1.941406 L 278.347656 26.257812 L 272.417969 26.257812 L 270.617188 21.394531 L 261.390625 21.394531 L 259.605469 26.257812 L 253.675781 26.257812 L 263.457031 1.941406 Z M 268.746094 16.527344 L 266.042969 9.457031 L 265.980469 9.457031 L 263.277344 16.527344 Z M 268.746094 16.527344 " fill-opacity="1" fill-rule="nonzero"></path><path fill="#b82026" d="M 288.214844 1.5 C 289.523438 1.5 290.800781 1.691406 292.046875 2.074219 C 293.300781 2.460938 294.234375 2.839844 294.847656 3.207031 L 295.734375 3.800781 L 293.488281 8.222656 C 293.3125 8.105469 293.066406 7.953125 292.75 7.761719 C 292.445312 7.578125 291.859375 7.328125 291 7.007812 C 290.132812 6.691406 289.332031 6.53125 288.589844 6.53125 C 287.671875 6.53125 286.960938 6.726562 286.460938 7.121094 C 285.957031 7.515625 285.707031 8.050781 285.707031 8.714844 C 285.707031 9.058594 285.820312 9.371094 286.050781 9.652344 C 286.289062 9.941406 286.695312 10.246094 287.261719 10.574219 C 287.828125 10.894531 288.328125 11.148438 288.753906 11.347656 C 289.1875 11.542969 289.859375 11.839844 290.769531 12.234375 C 292.328125 12.890625 293.660156 13.796875 294.765625 14.949219 C 295.878906 16.097656 296.4375 17.40625 296.4375 18.859375 C 296.4375 20.253906 296.183594 21.472656 295.683594 22.511719 C 295.179688 23.554688 294.492188 24.367188 293.621094 24.960938 C 292.753906 25.550781 291.792969 25.992188 290.738281 26.277344 C 289.675781 26.558594 288.527344 26.703125 287.296875 26.703125 C 286.234375 26.703125 285.199219 26.59375 284.183594 26.375 C 283.167969 26.15625 282.316406 25.890625 281.628906 25.570312 C 280.9375 25.238281 280.320312 24.921875 279.777344 24.617188 C 279.226562 24.300781 278.828125 24.03125 278.578125 23.808594 L 278.1875 23.480469 L 280.957031 18.828125 C 281.183594 19.023438 281.503906 19.28125 281.921875 19.585938 C 282.335938 19.890625 283.0625 20.304688 284.101562 20.816406 C 285.148438 21.324219 286.074219 21.574219 286.886719 21.574219 C 289.210938 21.574219 290.375 20.78125 290.375 19.191406 C 290.375 18.851562 290.292969 18.539062 290.128906 18.253906 C 289.964844 17.96875 289.671875 17.683594 289.246094 17.398438 C 288.828125 17.113281 288.460938 16.886719 288.132812 16.722656 C 287.8125 16.558594 287.285156 16.308594 286.542969 15.96875 C 285.808594 15.617188 285.269531 15.355469 284.921875 15.179688 C 283.445312 14.445312 282.304688 13.535156 281.496094 12.449219 C 280.699219 11.355469 280.300781 10.179688 280.300781 8.929688 C 280.300781 6.75 281.101562 4.96875 282.707031 3.585938 C 284.3125 2.195312 286.148438 1.5 288.214844 1.5 Z M 288.214844 1.5 " fill-opacity="1" fill-rule="nonzero"></path></svg> 